<?xml version="1.0" encoding="UTF-8" standalone="no"?>
<svg width="28px" height="29px" viewBox="0 0 28 29" version="1.1" xmlns="http://www.w3.org/2000/svg" xmlns:xlink="http://www.w3.org/1999/xlink" xmlns:sketch="http://www.bohemiancoding.com/sketch/ns">
    <!-- Generator: Sketch 3.2.2 (9983) - http://www.bohemiancoding.com/sketch -->
    <title>Path</title>
    <desc>Created with Sketch.</desc>
    <defs></defs>
    <g id="Welcome" stroke="none" stroke-width="1" fill="none" fill-rule="evenodd" sketch:type="MSPage">
        <g id="Desktop-HD-[receive]" sketch:type="MSArtboardGroup" transform="translate(-941.000000, -154.000000)" fill="#231F20">
            <path d="M940.9748,180.006286 C941.44128,179.235429 942.00856,178.150857 942.35744,176.960571 C942.69344,175.819429 943.60456,175.082857 943.926,174.852 C944.88248,174.599429 948.98672,173.493143 950.55528,172.763429 C951.25976,172.439429 951.84104,171.866286 952.28344,171.060571 L952.81768,170.088 L951.92168,169.449143 C949.71808,167.877714 948.4032,164.701143 948.4032,160.953714 C948.4032,156.142286 950.35872,154.089714 954.94288,154.089714 C959.52088,154.089714 961.47416,156.142286 961.47416,160.953714 C961.47416,164.717143 960.15032,167.900571 957.93272,169.469143 L957.02328,170.112571 L957.57208,171.092571 C958.01168,171.878286 958.58624,172.439429 959.27728,172.761714 C960.84976,173.493143 964.95176,174.598857 965.91104,174.852571 C966.23864,175.087429 967.14528,175.822857 967.48016,176.958857 C967.83576,178.177714 968.41312,179.270857 968.87624,180.027429 C966.55616,181.279429 961.16056,182.110857 954.96416,182.110857 C948.72744,182.109714 943.29712,181.269714 940.9748,180.006286 L940.9748,180.006286 Z" id="Path" sketch:type="MSShapeGroup"></path>
        </g>
    </g>
</svg>