<?xml version="1.0" encoding="UTF-8" standalone="no"?>
<svg width="17px" height="16px" viewBox="0 0 17 16" version="1.1" xmlns="http://www.w3.org/2000/svg" xmlns:xlink="http://www.w3.org/1999/xlink" xmlns:sketch="http://www.bohemiancoding.com/sketch/ns">
    <!-- Generator: Sketch 3.2.2 (9983) - http://www.bohemiancoding.com/sketch -->
    <title>Shape</title>
    <desc>Created with Sketch.</desc>
    <defs></defs>
    <g id="Welcome" stroke="none" stroke-width="1" fill="none" fill-rule="evenodd" sketch:type="MSPage">
        <g id="Desktop-HD-[main-page]" sketch:type="MSArtboardGroup" transform="translate(-1174.000000, -1766.000000)" fill="#FFFFFF">
            <path d="M1176.10909,1777.78182 C1174.94545,1777.78182 1174,1778.72727 1174,1779.81818 C1174,1780.90909 1174.94545,1781.92727 1176.10909,1781.92727 C1177.27273,1781.92727 1178.21818,1780.98182 1178.21818,1779.74545 C1178.21818,1778.72727 1177.27273,1777.78182 1176.10909,1777.78182 L1176.10909,1777.78182 Z M1174.07273,1766 L1174.07273,1769.05455 C1181.2,1769.05455 1186.94545,1774.8 1187.01818,1782 L1190.07273,1782 C1190,1773.05455 1182.87273,1766 1174.07273,1766 L1174.07273,1766 Z M1174.07273,1771.38182 L1174.07273,1774.43636 C1176.03636,1774.43636 1177.85455,1775.23636 1179.30909,1776.76364 C1180.76364,1778.21818 1181.56364,1780.03636 1181.63636,1781.92727 L1184.76364,1781.92727 C1184.61818,1776.18182 1179.81818,1771.38182 1174.07273,1771.38182 L1174.07273,1771.38182 Z" id="Shape" sketch:type="MSShapeGroup"></path>
        </g>
    </g>
</svg>