<?xml version="1.0" encoding="UTF-8" standalone="no"?>
<svg width="16px" height="15px" viewBox="0 0 16 15" version="1.1" xmlns="http://www.w3.org/2000/svg" xmlns:xlink="http://www.w3.org/1999/xlink" xmlns:sketch="http://www.bohemiancoding.com/sketch/ns">
    <!-- Generator: Sketch 3.2.2 (9983) - http://www.bohemiancoding.com/sketch -->
    <title>Shape</title>
    <desc>Created with Sketch.</desc>
    <defs></defs>
    <g id="Welcome" stroke="none" stroke-width="1" fill="none" fill-rule="evenodd" sketch:type="MSPage">
        <g id="Desktop-HD-[main-page]" sketch:type="MSArtboardGroup" transform="translate(-1029.000000, -1870.000000)" fill="#FFFFFF">
            <path d="M1045,1871.8 C1044.36842,1872.1 1043.73684,1872.325 1043.10526,1872.4 C1043.80702,1871.95 1044.29825,1871.2 1044.57895,1870.3 C1043.94737,1870.75 1043.24561,1871.05 1042.47368,1871.2 C1041.84211,1870.45 1041,1870 1040.08772,1870 C1038.26316,1870 1036.78947,1871.725 1036.78947,1873.825 C1036.78947,1874.125 1036.78947,1874.425 1036.85965,1874.65 C1034.12281,1874.5 1031.66667,1873 1030.05263,1870.675 C1029.77193,1871.2 1029.63158,1871.875 1029.63158,1872.55 C1029.63158,1873.9 1030.19298,1875.025 1031.10526,1875.7 C1030.54386,1875.7 1030.05263,1875.475 1029.63158,1875.25 L1029.63158,1875.325 C1029.63158,1877.125 1030.75439,1878.7 1032.29825,1879 C1032.01754,1879.075 1031.73684,1879.15 1031.45614,1879.15 C1031.24561,1879.15 1031.03509,1879.15 1030.82456,1879.075 C1031.24561,1880.575 1032.4386,1881.7 1033.91228,1881.7 C1032.78947,1882.75 1031.38596,1883.35 1029.77193,1883.35 C1029.49123,1883.35 1029.21053,1883.35 1029,1883.275 C1030.47368,1884.325 1032.22807,1885 1034.05263,1885 C1040.15789,1885 1043.45614,1879.225 1043.45614,1874.2 L1043.45614,1873.675 C1043.94737,1873.225 1044.50877,1872.55 1045,1871.8 L1045,1871.8 Z" id="Shape" sketch:type="MSShapeGroup"></path>
        </g>
    </g>
</svg>